<svg xmlns="http://www.w3.org/2000/svg" viewBox="0 0 32 32">
  <!-- base -->
  <circle cx="16" cy="16" r="15" fill="#c8773a"/>
  <!-- borde/sombra -->
  <circle cx="16" cy="16" r="15" fill="none" stroke="#a05820" stroke-width="1.5"/>
  <!-- grietas de textura -->
  <path d="M12 8 Q14 12 11 15" stroke="#a05820" stroke-width="0.8" fill="none" stroke-linecap="round"/>
  <path d="M20 20 Q22 23 20 26" stroke="#a05820" stroke-width="0.8" fill="none" stroke-linecap="round"/>
  <!-- chips de chocolate -->
  <ellipse cx="11"  cy="10"  rx="2.4" ry="2"   fill="#2e1205" transform="rotate(-20 11 10)"/>
  <ellipse cx="20"  cy="9"   rx="2"   ry="1.7"  fill="#2e1205" transform="rotate(15 20 9)"/>
  <ellipse cx="9"   cy="19"  rx="2"   ry="1.7"  fill="#2e1205" transform="rotate(-10 9 19)"/>
  <ellipse cx="17"  cy="17"  rx="2.4" ry="2"    fill="#2e1205" transform="rotate(25 17 17)"/>
  <ellipse cx="24"  cy="18"  rx="1.9" ry="1.6"  fill="#2e1205" transform="rotate(-15 24 18)"/>
  <ellipse cx="13"  cy="25"  rx="2"   ry="1.7"  fill="#2e1205" transform="rotate(10 13 25)"/>
  <ellipse cx="22"  cy="25"  rx="1.8" ry="1.5"  fill="#2e1205" transform="rotate(-5 22 25)"/>
</svg>
